HIERARCHY
ROOT hip
{
  OFFSET 0 0 0
  CHANNELS 6 Xposition Yposition Zposition Zrotation Yrotation Xrotation
  JOINT abdomen
  {
    OFFSET 0 20.6881 -0.73152
    CHANNELS 3 Zrotation Xrotation Yrotation
    JOINT chest
    {
      OFFSET 0 11.7043 -0.48768
      CHANNELS 3 Zrotation Xrotation Yrotation
      JOINT neck
      {
        OFFSET 0 22.1894 -2.19456
        CHANNELS 3 Zrotation Xrotation Yrotation
        JOINT head
        {
          OFFSET -0.24384 7.07133 1.2192
          CHANNELS 3 Zrotation Xrotation Yrotation
          JOINT leftEye
          {
            OFFSET 4.14528 8.04674 8.04672
            CHANNELS 3 Zrotation Xrotation Yrotation
            End Site
            {
              OFFSET 1 0 0
            }
          }
          JOINT rightEye
          {
            OFFSET -3.6576 8.04674 8.04672
            CHANNELS 3 Zrotation Xrotation Yrotation
            End Site
            {
              OFFSET 1 0 0
            }
          }
        }
      }
      JOINT rCollar
      {
        OFFSET -2.68224 19.2634 -4.8768
        CHANNELS 3 Zrotation Xrotation Yrotation
        JOINT rShldr
        {
          OFFSET -8.77824 -1.95073 1.46304
          CHANNELS 3 Zrotation Xrotation Yrotation
          JOINT rForeArm
          {
            OFFSET -28.1742 -1.7115 0.48768
            CHANNELS 3 Zrotation Xrotation Yrotation
            JOINT rHand
            {
              OFFSET -22.5879 0.773209 7.07136
              CHANNELS 3 Zrotation Xrotation Yrotation
              JOINT rThumb1
              {
                OFFSET -1.2192 -0.487915 3.41376
                CHANNELS 3 Zrotation Xrotation Yrotation
                JOINT rThumb2
                {
                  OFFSET -3.37035 -0.52449 3.41376
                  CHANNELS 3 Zrotation Xrotation Yrotation
                  End Site
                  {
                    OFFSET -1.78271 -1.18214 1.43049
                  }
                }
              }
              JOINT rIndex1
              {
                OFFSET -7.75947 0.938293 5.60832
                CHANNELS 3 Zrotation Xrotation Yrotation
                JOINT rIndex2
                {
                  OFFSET -2.54057 -0.884171 1.56538
                  CHANNELS 3 Zrotation Xrotation Yrotation
                  End Site
                  {
                    OFFSET -1.62519 -0.234802 1.16502
                  }
                }
              }
              JOINT rMid1
              {
                OFFSET -8.24714 1.18213 3.41376
                CHANNELS 3 Zrotation Xrotation Yrotation
                JOINT rMid2
                {
                  OFFSET -3.10165 -0.590103 1.0647
                  CHANNELS 3 Zrotation Xrotation Yrotation
                  End Site
                  {
                    OFFSET -2.48547 -0.328903 0.83742
                  }
                }
              }
              JOINT rRing1
              {
                OFFSET -8.82822 0.546677 1.51678
                CHANNELS 3 Zrotation Xrotation Yrotation
                JOINT rRing2
                {
                  OFFSET -2.60934 -0.819778 -0.0198488
                  CHANNELS 3 Zrotation Xrotation Yrotation
                  End Site
                  {
                    OFFSET -2.33842 -0.294052 0.168128
                  }
                }
              }
              JOINT rPinky1
              {
                OFFSET -8.27202 -0.0477905 -0.4584
                CHANNELS 3 Zrotation Xrotation Yrotation
                JOINT rPinky2
                {
                  OFFSET -1.82734 -0.647385 -0.700984
                  CHANNELS 3 Zrotation Xrotation Yrotation
                  End Site
                  {
                    OFFSET -1.69225 -0.51767 -0.607171
                  }
                }
              }
            }
          }
        }
      }
      JOINT lCollar
      {
        OFFSET 2.68224 19.2634 -4.8768
        CHANNELS 3 Zrotation Xrotation Yrotation
        JOINT lShldr
        {
          OFFSET 8.77824 -1.95073 1.46304
          CHANNELS 3 Zrotation Xrotation Yrotation
          JOINT lForeArm
          {
            OFFSET 28.1742 -1.7115 0.48768
            CHANNELS 3 Zrotation Xrotation Yrotation
            JOINT lHand
            {
              OFFSET 22.5879 0.773209 7.07136
              CHANNELS 3 Zrotation Xrotation Yrotation
              JOINT lThumb1
              {
                OFFSET 1.2192 -0.487915 3.41376
                CHANNELS 3 Zrotation Xrotation Yrotation
                JOINT lThumb2
                {
                  OFFSET 3.37035 -0.52449 3.41376
                  CHANNELS 3 Zrotation Xrotation Yrotation
                  End Site
                  {
                    OFFSET 1.78271 -1.18214 1.43049
                  }
                }
              }
              JOINT lIndex1
              {
                OFFSET 7.75947 0.938293 5.60832
                CHANNELS 3 Zrotation Xrotation Yrotation
                JOINT lIndex2
                {
                  OFFSET 2.54057 -0.884171 1.56538
                  CHANNELS 3 Zrotation Xrotation Yrotation
                  End Site
                  {
                    OFFSET 1.62519 -0.234802 1.16502
                  }
                }
              }
              JOINT lMid1
              {
                OFFSET 8.24714 1.18213 3.41376
                CHANNELS 3 Zrotation Xrotation Yrotation
                JOINT lMid2
                {
                  OFFSET 3.10165 -0.590103 1.0647
                  CHANNELS 3 Zrotation Xrotation Yrotation
                  End Site
                  {
                    OFFSET 2.48547 -0.328903 0.83742
                  }
                }
              }
              JOINT lRing1
              {
                OFFSET 8.82822 0.546677 1.51678
                CHANNELS 3 Zrotation Xrotation Yrotation
                JOINT lRing2
                {
                  OFFSET 2.60934 -0.819778 -0.0198488
                  CHANNELS 3 Zrotation Xrotation Yrotation
                  End Site
                  {
                    OFFSET 2.33842 -0.294052 0.168128
                  }
                }
              }
              JOINT lPinky1
              {
                OFFSET 8.27202 -0.0477905 -0.4584
                CHANNELS 3 Zrotation Xrotation Yrotation
                JOINT lPinky2
                {
                  OFFSET 1.82734 -0.647385 -0.700984
                  CHANNELS 3 Zrotation Xrotation Yrotation
                  End Site
                  {
                    OFFSET 1.69225 -0.51767 -0.607171
                  }
                }
              }
            }
          }
        }
      }
    }
  }
  JOINT rButtock
  {
    OFFSET -8.77824 4.35084 1.2192
    CHANNELS 3 Zrotation Xrotation Yrotation
    JOINT rThigh
    {
      OFFSET 0 -1.70687 -2.19456
      CHANNELS 3 Zrotation Xrotation Yrotation
      JOINT rShin
      {
        OFFSET 0 -36.8199 0.73152
        CHANNELS 3 Zrotation Xrotation Yrotation
        JOINT rFoot
        {
          OFFSET 0.73152 -45.1104 -5.12064
          CHANNELS 3 Zrotation Xrotation Yrotation
          End Site
          {
            OFFSET -1.1221 -3.69964 12.103
          }
        }
      }
    }
  }
  JOINT lButtock
  {
    OFFSET 8.77824 4.35084 1.2192
    CHANNELS 3 Zrotation Xrotation Yrotation
    JOINT lThigh
    {
      OFFSET 0 -1.70687 -2.19456
      CHANNELS 3 Zrotation Xrotation Yrotation
      JOINT lShin
      {
        OFFSET 0 -36.8199 0.73152
        CHANNELS 3 Zrotation Xrotation Yrotation
        JOINT lFoot
        {
          OFFSET -0.73152 -45.1104 -5.12064
          CHANNELS 3 Zrotation Xrotation Yrotation
          End Site
          {
            OFFSET 1.1221 -3.69964 12.103
          }
        }
      }
    }
  }
}
MOTION
Frames:	6
Frame Time:	0.00833333
-173.844 85.4571 19.8525 0.0 0.0 0.0 1.9299 -0.00172166 0.0523831 0.532087 0.00507148 0.0921235 -5.66478e-14 0.0 2.73329e-16 -1.70163e-13 3.18055e-15 9.44227e-16 -0.0 0.0 0.0 -0.0 0.0 0.0 -2.84278e-14 1.16475e-16 2.48481e-16 -5.95012e-13 2.45375e-15 2.38542e-15 -1.02683e-11 3.15094e-12 1.46306e-13 -1.17443e-10 -2.62505e-12 4.16653e-13 -2.77043e-10 1.13734e-12 1.2754e-12 -4.7845e-10 1.95922e-12 2.20015e-12 -2.77036e-10 1.14023e-12 1.26586e-12 7.73091 5.47488 0.417314 -2.77043e-10 1.13735e-12 1.2754e-12 2.90554 0.965183 0.102902 -2.77032e-10 1.13745e-12 1.26904e-12 10.2786 0.731801 0.0259123 -2.77044e-10 1.13745e-12 1.27222e-12 2.22167 -0.733487 -0.20892 -2.84265e-14 1.13758e-16 4.96962e-17 -5.99642e-13 2.47238e-15 1.98785e-16 -1.02592e-11 -2.99171e-12 1.55847e-13 -1.17464e-10 3.49936e-12 4.19833e-13 -2.77061e-10 1.09844e-12 1.26268e-12 -4.78468e-10 1.89561e-12 2.19935e-12 -2.77065e-10 1.09928e-12 1.26586e-12 -7.73091 5.47488 -0.417314 -2.77063e-10 1.09848e-12 1.25632e-12 -2.90554 0.965183 -0.102902 -2.77069e-10 1.09898e-12 1.26666e-12 -10.2786 0.731801 -0.0259123 -2.77059e-10 1.10047e-12 1.26268e-12 -2.22167 -0.733487 0.20892 -2.03217e-16 0.0 -3.88251e-19 1.9591 -7.2612 -0.191994 0.00412319 7.58536 0.107086 -0.520891 -0.330703 0.0522835 2.03217e-16 0.0 3.88251e-19 0.976309 -1.92613 0.000876001 0.00898986 -2.0786 0.0740867 0.488265 3.99808 -0.136795
-167.048 84.2172 11.082 41.1801 83.422 42.8387 -0.49936 1.10882 1.17878 1.2481 0.094881 0.420878 0.797778 -0.958454 0.180346 0.0747156 0.610292 0.187898 -0.0 0.0 0.0 -0.0 0.0 0.0 -1.832e-14 2.87657e-13 2.78726e-15 22.0559 10.0909 0.335872 -4.22339 -1.91965 6.59584 0.000917451 0.671996 0.0944193 8.81854e-11 4.14414e-11 6.62305e-11 1.53104e-10 7.21097e-11 1.1276e-10 8.81932e-11 4.14422e-11 6.62209e-11 7.73091 5.47488 0.417314 8.81877e-11 4.14389e-11 6.62307e-11 2.90554 0.965183 0.102902 8.81966e-11 4.14387e-11 6.62248e-11 10.2786 0.731801 0.0259123 8.81835e-11 4.14387e-11 6.62271e-11 2.22167 -0.733487 -0.20892 -1.83135e-14 2.87656e-13 2.52946e-15 -21.1757 9.27151 -0.400506 3.93596 -1.73521 -6.20437 -0.017846 2.98633 -0.417692 -2.71175e-10 6.19733e-11 2.77e-10 -4.66697e-10 1.06888e-10 4.79794e-10 -2.7118e-10 6.19728e-11 2.77001e-10 -7.73091 5.47488 -0.417314 -2.71177e-10 6.19715e-11 2.76992e-10 -2.90554 0.965183 -0.102902 -2.71184e-10 6.1972e-11 2.77e-10 -10.2786 0.731801 -0.0259123 -2.71171e-10 6.1974e-11 2.76993e-10 -2.22167 -0.733487 0.20892 -2.03217e-16 0.0 -3.88251e-19 0.565177 -8.00986 -2.45804 0.00963015 13.4313 0.192347 -0.335086 -7.32756 0.971534 2.03217e-16 0.0 3.88251e-19 0.558681 -3.25062 0.77279 -0.0179525 5.40965 -0.0946599 0.980284 -2.97898 3.31287
-166.993 84.2184 11.152 41.7707 83.5525 43.3934 -3.14914 2.26508 2.36752 2.01405 0.194868 0.766952 1.64827 -1.96332 0.369373 0.156595 1.26292 0.383966 -0.0 0.0 0.0 -0.0 0.0 0.0 -7.83512e-15 5.76216e-13 5.37029e-15 45.2413 20.7376 0.715301 -8.20789 -3.86199 13.5875 -0.000520695 1.38095 0.194076 5.27272e-10 8.94867e-11 1.16546e-10 9.12231e-10 1.55698e-10 1.97692e-10 5.2728e-10 8.94851e-11 1.16537e-10 7.73091 5.47488 0.417314 5.27276e-10 8.94813e-11 1.16547e-10 2.90554 0.965183 0.102902 5.27283e-10 8.94809e-11 1.16541e-10 10.2786 0.731801 0.0259123 5.27269e-10 8.94808e-11 1.16542e-10 2.22167 -0.733487 -0.20892 -7.81969e-15 5.76216e-13 5.04727e-15 -43.4185 19.0533 -0.871177 7.67878 -3.49341 -12.7629 0.0112061 6.18492 -0.868989 -2.93353e-10 1.42848e-10 6.22662e-10 -5.02969e-10 2.46407e-10 1.07855e-09 -2.93359e-10 1.42846e-10 6.2266e-10 -7.73091 5.47488 -0.417314 -2.93356e-10 1.42844e-10 6.22653e-10 -2.90554 0.965183 -0.102902 -2.93364e-10 1.42845e-10 6.22658e-10 -10.2786 0.731801 -0.0259123 -2.93348e-10 1.42847e-10 6.22648e-10 -2.22167 -0.733487 0.20892 -2.03217e-16 0.0 -3.88251e-19 -1.00046 -8.80516 -4.85844 -0.00511175 19.6294 0.289707 0.112029 -14.7186 1.98738 2.03217e-16 0.0 3.88251e-19 0.124619 -4.63062 1.58438 0.00253577 13.2751 -0.27914 2.42583 -10.2863 7.07407
-166.96 84.2072 11.2224 42.4493 83.6533 44.0821 -5.48899 3.32463 3.4367 2.67703 0.274459 1.0784 2.41145 -2.87525 0.541645 0.212133 1.8308 0.56395 -0.0 0.0 0.0 -0.0 0.0 0.0 1.8957e-15 8.6274e-13 7.86481e-15 65.7651 30.2682 1.14863 -11.3685 -5.4543 19.8701 -0.00389552 2.01596 0.283414 8.18643e-10 1.22049e-10 1.96141e-10 1.41621e-09 2.12411e-10 3.33881e-10 8.18651e-10 1.22046e-10 1.96131e-10 7.73091 5.47488 0.417314 8.18649e-10 1.22042e-10 1.96141e-10 2.90554 0.965183 0.102902 8.18653e-10 1.22041e-10 1.96136e-10 10.2786 0.731801 0.0259123 8.18639e-10 1.22041e-10 1.96137e-10 2.22167 -0.733487 -0.20892 1.91238e-15 8.6274e-13 7.48898e-15 -63.0952 27.8087 -1.34068 10.699 -4.96195 -18.6771 0.0784475 8.95708 -1.26683 -2.59402e-10 1.83723e-10 8.28474e-10 -4.43156e-10 3.16873e-10 1.43498e-09 -2.59409e-10 1.8372e-10 8.28471e-10 -7.73091 5.47488 -0.417314 -2.59405e-10 1.83718e-10 8.28465e-10 -2.90554 0.965183 -0.102902 -2.59413e-10 1.83718e-10 8.28467e-10 -10.2786 0.731801 -0.0259123 -2.59396e-10 1.83721e-10 8.28455e-10 -2.22167 -0.733487 0.20892 -2.03217e-16 0.0 -3.88251e-19 -2.40188 -9.45884 -7.01712 -0.0372299 25.123 0.385423 0.752474 -21.298 2.99065 2.03217e-16 0.0 3.88251e-19 -0.169016 -5.89566 2.3252 0.0668541 20.3856 -0.459575 4.5547 -16.6724 10.6507
-166.905 84.1934 11.403 39.9508 83.8488 41.5637 -6.96524 4.14718 4.20245 3.08505 0.303104 1.30326 2.94414 -3.55496 0.671492 0.21028 2.18686 0.703475 -0.0 0.0 0.0 -0.0 0.0 0.0 9.74144e-15 1.14418e-12 1.0138e-14 79.9052 37.0118 1.59941 -13.3736 -6.45991 24.302 -0.00746496 2.46615 0.346811 7.40724e-10 1.15906e-10 3.48932e-10 1.28232e-09 2.01933e-10 5.98211e-10 7.40732e-10 1.15902e-10 3.48923e-10 7.73091 5.47488 0.417314 7.40731e-10 1.15898e-10 3.48932e-10 2.90554 0.965183 0.102902 7.40734e-10 1.15897e-10 3.48928e-10 10.2786 0.731801 0.0259123 7.4072e-10 1.15897e-10 3.48929e-10 2.22167 -0.733487 -0.20892 9.74008e-15 1.14418e-12 9.74045e-15 -76.6926 34.0042 -1.66921 12.6734 -5.93229 -22.9212 0.14157 10.6651 -1.51662 -8.51267e-11 1.24598e-10 6.84665e-10 -1.43128e-10 2.14703e-10 1.18561e-09 -8.51339e-11 1.24594e-10 6.84662e-10 -7.73091 5.47488 -0.417314 -8.51302e-11 1.24592e-10 6.84656e-10 -2.90554 0.965183 -0.102902 -8.51385e-11 1.24592e-10 6.84657e-10 -10.2786 0.731801 -0.0259123 -8.51196e-11 1.24595e-10 6.84643e-10 -2.22167 -0.733487 0.20892 -2.03217e-16 0.0 -3.88251e-19 -3.2593 -9.79658 -8.55001 -0.0695225 28.8553 0.457642 1.36298 -25.8694 3.79497 2.03217e-16 0.0 3.88251e-19 -0.183446 -6.87652 2.88238 0.143416 25.6093 -0.60334 6.52732 -21.018 13.3032
-166.828 84.189 11.6253 35.649 84.1122 37.1401 -7.19404 4.63978 4.55678 3.12761 0.264188 1.41129 3.15954 -3.92186 0.743454 0.116683 2.27323 0.786279 -0.0 0.0 0.0 -0.0 0.0 0.0 1.59822e-14 1.50964e-12 1.27094e-14 85.2807 39.8725 1.96311 -14.1392 -6.84289 26.0976 -0.00923864 2.65764 0.373795 -7.72662e-12 4.09576e-11 6.72249e-10 -9.54925e-12 7.20771e-11 1.16016e-09 -7.72027e-12 4.09553e-11 6.7224e-10 7.73091 5.47488 0.417314 -7.72124e-12 4.09525e-11 6.72247e-10 2.90554 0.965183 0.102902 -7.71627e-12 4.09514e-11 6.72245e-10 10.2786 0.731801 0.0259123 -7.73012e-12 4.09514e-11 6.72247e-10 2.22167 -0.733487 -0.20892 1.59245e-14 1.50965e-12 1.23382e-14 -81.9568 36.6471 -1.6793 13.5105 -6.3653 -24.8018 0.154519 10.845 -1.54377 3.69411e-10 -1.21594e-10 -1.0348e-10 6.36949e-10 -2.10412e-10 -1.80245e-10 3.69404e-10 -1.21598e-10 -1.03481e-10 -7.73091 5.47488 -0.417314 3.69407e-10 -1.21601e-10 -1.03487e-10 -2.90554 0.965183 -0.102902 3.694e-10 -1.21601e-10 -1.03488e-10 -10.2786 0.731801 -0.0259123 3.69417e-10 -1.21598e-10 -1.035e-10 -2.22167 -0.733487 0.20892 -2.03217e-16 0.0 -3.88251e-19 -3.29818 -9.70888 -9.19933 -0.0799797 30.1265 0.483815 1.6763 -27.6482 4.20984 2.03217e-16 0.0 3.88251e-19 0.157309 -7.42195 3.1582 0.186538 28.1524 -0.672633 7.38641 -22.7292 14.3052
